
	<svg xmlns="http://www.w3.org/2000/svg" xmlns:xlink="http://www.w3.org/1999/xlink" version="1.1" width="500" height="500" viewBox="0 0 100 100">


		<defs>
			<g id="background">
<path fill="#background-gradient" stroke="none" d=" M 96.1 30.55 Q 92.3 21.55 85.35 14.6 78.45 7.7 69.5 3.9 60.2 0 50.05 0 39.85 0 30.55 3.9 21.55 7.7 14.65 14.6 7.75 21.55 3.95 30.55 0 39.8 0 50 0 60.15 3.95 69.45 7.75 78.4 14.65 85.35 21.55 92.25 30.55 96.05 39.85 100 50.05 100 60.2 100 69.5 96.05 78.45 92.25 85.35 85.35 92.3 78.4 96.1 69.45 100 60.15 100 50 100 39.8 96.1 30.55 Z"/>
</g><mask id="mask">
<path fill="#FFFFFF" stroke="none" d=" M 96.1 30.55 Q 92.3 21.55 85.35 14.6 78.45 7.7 69.5 3.9 60.2 0 50.05 0 39.85 0 30.55 3.9 21.55 7.7 14.65 14.6 7.75 21.55 3.95 30.55 0 39.8 0 50 0 60.15 3.95 69.45 7.75 78.4 14.65 85.35 21.55 92.25 30.55 96.05 39.85 100 50.05 100 60.2 100 69.5 96.05 78.45 92.25 85.35 85.35 92.3 78.4 96.1 69.45 100 60.15 100 50 100 39.8 96.1 30.55 Z"/>
</mask><g id="gloss-top">
<path fill="#FFFFFF" fill-opacity="0.30196078431372547" stroke="none" d=" M 96.05 30.55 Q 92.25 21.55 85.3 14.65 78.4 7.75 69.45 3.9 60.15 0 50 0 39.8 0 30.55 3.9 21.55 7.75 14.65 14.65 7.75 21.55 3.9 30.55 0 39.8 0 50 L 99.95 50 Q 99.95 39.8 96.05 30.55 Z"/>
</g><g id="gloss-right">
<path fill="#FFFFFF" fill-opacity="0.30196078431372547" stroke="none" d=" M 96.1 30.55 Q 92.3 21.55 85.35 14.65 78.5 7.75 69.5 3.9 60.2 0 50.05 0 L 50.05 100 Q 60.2 100 69.5 96.05 78.5 92.25 85.35 85.35 92.3 78.45 96.1 69.45 100 60.15 100 50 100 39.8 96.1 30.55 Z"/>
</g><g id="gloss-left">
<path fill="#FFFFFF" fill-opacity="0.30196078431372547" stroke="none" d=" M 30.55 3.9 Q 21.55 7.75 14.65 14.65 7.75 21.55 3.9 30.55 0 39.8 0 50 0 60.15 3.9 69.45 7.75 78.45 14.65 85.35 21.55 92.25 30.55 96.05 39.8 100 50 100 L 50 0 Q 39.8 0 30.55 3.9 Z"/>
</g>
			
	<linearGradient id="background-gradient" x1="0" y1="0" y2="1" x2="0" gradientTransform="rotate(90 0.5 0.5)">
		<stop stop-color="#90ee90" offset="50%"/>
		<stop stop-color="#90ee90" offset="100%"/>
	</linearGradient>

			
			
			<g transform="scale(0.6560001249218987) translate(-76.83100128173828 -73.78051376342773)" id="picture"><path d="M189.6 107.8c.2 1.4.4 2.4.6 2.8.2.6.2 1.2.2 2.2 0 2.8-.6 5.2-1.8 7.6-1.2 2.4-2.8 4-4.8 5-1.6-2.2-3.6-4.2-6-5.8-2.4-1.6-5-3-7.8-4s-5.8-1.8-8.8-2.2c-3-.4-6-.8-8.8-.8-2.8 0-5.6.2-8 .6-2.6.8-4.8 1.4-6.8 2s-3.4 1.8-4.6 2.8c-1.2 1.2-1.6 2.4-1.6 4 .2 1.8 1.4 3.6 3.4 5.4 2 1.8 4.4 3.6 7.2 5.4 2.8 1.8 6 3.4 9.6 5.2 3.4 1.8 6.8 3.4 10.2 5 4.2 2 7.8 3.8 10.8 5.4 3 1.6 5.6 3.6 7.4 5.6 2 2 3.4 4.2 4.4 6.8 1 2.6 1.4 5.6 1.4 9.2 0 4.2-.6 8-2 11.8-1.4 3.6-3.4 6.8-6 9.6s-5.8 4.8-9.6 6.4c-3.8 1.6-8 2.2-12.6 2.2s-9.6-.6-14.8-2c-5.4-1.4-10.4-3.2-15-5.8-4.6-2.4-8.4-5.2-11.6-8.4-3-3.2-4.6-6.4-4.6-10 0-1.6.4-3.8 1.4-6.2 1-2.6 2.6-5.2 5-8 .2 2.4 1.6 5.4 4 8.8 2.4 3.4 6 6.4 10.8 9.4 4.6 2.6 9.2 4.6 14 5.8 4.8 1.2 9.2 1.8 13.4 1.8 4.6 0 8.4-.6 11.2-1.8 2.8-1.2 5.2-2.6 6.8-4.2 1.6-1.6 2.8-3.2 3.4-4.8.6-1.6 1-3 1.2-4 0-1.6-.8-3.2-2.2-4.8-1.4-1.6-3.4-3-5.8-4.4-2.4-1.4-5.2-2.8-8.4-4.4-3.2-1.4-6.6-3-10-4.4-5.2-2.2-9.6-4.4-13.4-6.4-3.8-2-6.8-4-9.2-6.2-2.4-2-4.2-4.2-5.2-6.6-1.2-2.2-1.6-5-1.6-7.8 0-4.6 1.4-9 4.2-13s6.8-7.2 12-9.4c2.6-1.2 5.4-2 8.4-2.4 3-.6 6-.8 8.8-.8 5.4 0 10.6.8 15.8 2.2 5.2 1.4 10.4 3.4 15.4 5.6zm-82.43-5.3c-3.793.199-6.787 1.596-8.982 3.991s-3.394 5.39-3.394 8.982c0 1.597.2 3.793.4 6.787s.399 5.19.399 6.786c0 9.98-3.393 16.966-9.98 20.958 6.587 3.992 9.78 10.978 9.78 20.958 0 1.597 0 3.793-.2 6.787s-.199 5.19-.199 6.786c0 3.593.998 6.587 3.194 8.982 2.195 2.395 5.19 3.793 8.982 3.992v2.395h-2.395c-8.583 0-13.573-3.592-15.37-10.978L87.61 167.37c-.998-8.583-4.591-13.973-10.779-15.969v-2.594c6.388-2.196 9.98-7.585 10.779-16.368.599-7.185 1.197-14.37 1.597-21.756 2.195-7.186 7.984-10.779 17.964-10.579v2.395zm122.1 48.694c-6.388 2.195-9.98 7.585-10.779 16.367-.599 7.186-1.198 14.371-1.597 21.757-2.195 7.185-7.984 10.778-17.964 10.578v-2.395c3.793-.2 6.787-1.597 8.982-3.992s3.194-5.389 3.194-8.982c0-1.597-.2-3.792-.4-6.786s-.399-5.19-.399-6.787c0-9.98 3.394-16.966 9.98-20.958-6.586-3.992-9.78-10.978-9.78-20.958 0-1.597 0-3.792.2-6.786s.2-5.19.2-6.787c0-3.593-.999-6.587-3.194-8.982-2.196-2.395-5.19-3.792-8.982-3.992v-2.395h2.195c8.583 0 13.573 3.593 15.37 10.978l1.796 21.557c.998 8.583 4.59 13.972 10.778 15.968v2.595h.4z"/></g>
			
	<linearGradient id="picture-gradient" x1="0" y1="0" y2="1" x2="0" gradientTransform="rotate(90 0.5 0.5)">
		<stop stop-color="#333333" offset="50%"/>
		<stop stop-color="#333333" offset="100%"/>
	</linearGradient>

		</defs>

		

			<use xlink:href="#background" fill="url(#background-gradient)" />

		

			<g mask="url(#mask)">
				<g transform="
				        translate(
                                50 50
)
                            translate(0 0)  scale(0.8)  
                            translate(
                                -50 -50
)">
						<use xlink:href="#picture" fill="url(#picture-gradient)"  />
				</g>
			</g>

		

			<use xlink:href="#gloss-right" opacity="1" />


	</svg>
